<svg width="227" height="227" viewBox="0 0 227 227" fill="none" xmlns="http://www.w3.org/2000/svg">
<rect y="113.137" width="160" height="160" rx="28" transform="rotate(-45 0 113.137)" fill="white"/>
<rect x="33" y="33.1371" width="160" height="160" rx="28" fill="white"/>
<path d="M49 84.1371H68.8912L82.5735 117.555H83.2634L96.9458 84.1371H116.837V143.137H101.2V109.028H100.74L87.6326 142.676H78.2044L65.0969 108.797H64.637V143.137H49V84.1371Z" fill="#23006A"/>
<path d="M148.681 143.137H126.03V84.1371H148.451C154.506 84.1371 159.738 85.3182 164.145 87.6805C168.572 90.0236 171.983 93.4038 174.378 97.8212C176.793 102.219 178 107.491 178 113.637C178 119.783 176.802 125.064 174.407 129.482C172.012 133.88 168.62 137.26 164.231 139.622C159.843 141.966 154.659 143.137 148.681 143.137ZM142.012 129.539H148.106C151.019 129.539 153.5 129.069 155.551 128.128C157.62 127.187 159.192 125.564 160.265 123.259C161.357 120.954 161.903 117.747 161.903 113.637C161.903 109.527 161.347 106.32 160.236 104.015C159.144 101.71 157.534 100.087 155.407 99.1464C153.299 98.2053 150.712 97.7347 147.646 97.7347H142.012V129.539Z" fill="#23006A"/>
</svg>